<svg width="1053" height="569" fill="none" xmlns="http://www.w3.org/2000/svg"><g opacity=".3"><path d="M351.358 910.635c-322.162 0-362.77-211.747-348.38-318.483C24.75 430.656 203.296 345.435 229.423 296.096c26.129-49.364 0-121.129 0-121.129S416.68 300.581 333.939 430.656C251.2 560.755 399.261 717.767 429.743 623.55c30.485-94.192 4.356-165.982 4.356-165.982s108.868 31.397 126.287 197.379c17.418 165.982-165.483 255.688-209.028 255.688Z" fill="#FC0001"/><path d="M590.878 143.535c-163.737 94.88-104.515 210.838-13.066 300.567 112.822 110.675 156.773 287.096-87.094 363.354C302.463 866.333 381.849 919.61 381.849 919.61s428.397 94.27 579.182-174.967C1091.68 511.379 852.162 264.67 852.162 264.67s30.484 179.432-100.157 165.987c-112.495-11.596-115.102-119.603-65.322-215.328C752.005 89.729 630.07 0 630.07 0s30.484 103.174-39.192 143.535Z" fill="#FC0001"/><path d="M281.685 345.429c-352.738 161.489-317.9 493.432-113.226 569.694 204.675 76.262 365.798-49.343 370.154-170.454 4.354-121.11-34.839-197.372-34.839-197.372s-60.966 206.337-182.899 103.18c-121.933-103.18-39.19-305.048-39.19-305.048ZM657.273 457.581c-161.125-62.789-154.468-211.767-116.489-250.085 52.257-52.713 78.924-43.604 103.426-70.641 30.481-33.659 13.063-97.574 13.063-97.574s78.388 88.596 13.065 158.138c-56.331 59.937-69.675 179.418-13.065 260.162Z" fill="#FB6D01"/><path d="M877.567 311.017c226.443 231.019 103.063 527.838-60.239 583.908-163.305 56.07-189.434 53.84-252.577 17.938-63.145-35.877 17.419-186.148 132.82-213.081 115.401-26.907 58.79-53.815 4.356-116.624-54.438-62.809-34.115-183.919-34.115-183.919s83.467 94.962 161.856 58.325c74.744-34.946 47.899-146.547 47.899-146.547Z" fill="#FB6D01"/><path d="M719.326 486.748C677.957 625.817 891.34 652.735 863.033 760.387c-28.307 107.652-235.156 134.571-235.156 134.571s253.48 50.979 330.96-116.625c65.323-141.318-54.435-208.603-137.175-215.327-97.891-7.965-102.336-76.258-102.336-76.258Z" fill="#EFA204"/><path d="M904.416 357.384c148.064 189.147 51.311 310.91-10.161 250.452-61.473-60.433 50.079-144.288 10.161-250.452ZM212.002 412.727C-25.33 589.909-7.186 771.604 110.392 870.285c117.578 98.681 317.17 96.436 365.072-22.425 47.902-118.885-28.306-139.066-172.013-170.471-143.704-31.405-91.449-264.662-91.449-264.662ZM614.815 527.119c115.398 91.957 154.589 192.884 111.045 282.615-43.549 89.708-235.156 125.591-204.674 20.167 30.485-105.401 124.11-125.591 124.11-204.103 0-78.489-30.481-98.679-30.481-98.679Z" fill="#EFA204"/><path d="M148.868 495.687c-158.947 181.68-82.013 385.027 18.146 411.953 100.159 26.926 249.673-30.643 260.559-93.446 10.888-62.804-6.532-94.218-6.532-94.218s23.954 31.414-58.788 76.267c-82.741 44.853-100.159 33.634-100.159 33.634s43.545-62.804-54.435-170.46c-97.983-107.657-58.791-163.73-58.791-163.73ZM479.828 554.01c67.498 96.434 28.307 195.147 28.307 195.147s0-38.137-32.662-76.273c-32.66-38.136 4.355-118.874 4.355-118.874ZM880.463 820.922c105.908-87.272 74.032-177.185-8.71-217.572-82.738-40.364-89.272-29.16-89.272-29.16s65.239 72.899 82.74 107.661c30.484 60.569 10.886 139.071-65.32 179.435-76.211 40.387 26.128 4.5 80.562-40.364ZM634.42 165.992c-82.74 51.579-132.822 85.228-113.226 165.987 25.051 103.209 113.226 98.688 113.226 98.688s-56.612-56.074-50.082-125.608c6.533-69.533 50.082-139.067 50.082-139.067Z" fill="#FACF67"/><path d="M762.879 372.351c67.498-67.281 17.161-95.291 6.531-148.043-7.981-39.628 19.597-80.736 19.597-80.736s-70.463 71.799-41.37 118.117c47.904 76.268 15.242 110.662 15.242 110.662Z" fill="#FC0001"/><path d="M333.937 212.359c17.419 53.839 16.564 81.637-23.226 130.077-79.838 97.206-17.419 162.998-18.871 158.503-1.451-4.47-7.825-95.348 42.097-136.053 69.674-56.827 0-152.527 0-152.527Z" fill="#FCE8B3"/><path d="M377.493 509.895c-27.58 59.822-2.903 91.212-2.903 91.212l2.903-91.212Z" fill="#FC0001"/><path d="M933.452 471.014c65.323 68.785 78.388 134.584 24.68 234.751 7.258-46.343-37.742-80.736-37.742-80.736s42.387-37.357 40.644-73.279c-1.453-29.9-27.582-80.736-27.582-80.736Z" fill="#FCE8B3"/><path d="M906.586 601.882c28.305-75.522-24.677-103.188-65.322-130.107-40.644-26.894-37.741-97.93-37.741-97.93s-51.528 51.595-21.047 127.092c22.336 55.333 124.11 100.945 124.11 100.945Z" fill="#FACF67"/></g></svg>